<?xml-stylesheet type="text/css" href="./css/style.css"?>
<svg width="400px" height="400px" xmlns="http://www.w3.org/2000/svg" viewBox="-178.002 -167.502 182 175.5">
  <path d="M -129 -81 L -129 -104 M -129 -81 H -108 M -108 -81 L -108 -81 L -108 -81 M -108 -81 V -81 L -108 -81 M -129 -81 L -134 -76 L -134 -76 M -134 -99 V -76 H -113 L -108 -81 H -108 V -104 H -129 Z Z Z Z Z Z Z Z Z Z Z Z Z Z Z Z M -124 -100 L -125 -100 Q -125 -101 -124 -101 L -122 -101 C -121 -101 -121 -100.3333 -121 -100 Q -121 -98 -121 -98 L -121 -98 L -121 -98 L -121 -98 L -121 -95 Q -121 -94 -122 -94 L -124 -94 C -124 -94 -125 -94 -125 -95 L -125 -95 L -122 -95 L -122 -97 L -124 -97 L -124 -98 L -122 -98 L -122 -100 M -126 -91 L -123 -84 L -120 -91 M -120 -91 L -119 -91 L -123 -82 L -127 -91 L -126 -91 M -116 -91 H -111 L -111 -90 L -115 -83 L -111 -83 L -111 -82 L -116 -82 L -116 -83 L -112 -90 L -116 -90 M -118 -82 V -89 H -117 V -82 M -118 -91 A 1 1 0 0 0 -117 -91 A 1 1 0 0 0 -117 -90 A 1 1 0 0 0 -118 -90 A 1 1 0 0 0 -118 -91 M -119 -103 Q -115 -103 -114.3 -98.5 Q -115 -94 -119 -94 L -119 -94 L -119 -95 A 1 1 0 0 0 -119 -102 L -119 -94 L -120 -94 L -120 -103 Z M -129 -104 V -81 V -103 H -109 L -109 -81 H -129 M -134 -76.5 L -129 -81.5 L -129 -81 L -128.5 -81 L -133.5 -76 L -134 -76 Z" fill="#0d1c16"/>
</svg>
